<svg width="39" height="39" viewBox="0 0 39 39" fill="none" xmlns="http://www.w3.org/2000/svg">
<path d="M33.6591 8.35202C33.4342 8.03112 33.1354 7.76911 32.7878 7.58817C32.4402 7.40723 32.0541 7.31267 31.6623 7.3125H3.65625C3.01001 7.31323 2.39044 7.57027 1.93348 8.02723C1.47652 8.48419 1.21948 9.10376 1.21875 9.75V28.6406H4.34804C4.56218 29.8367 5.19012 30.9194 6.12196 31.6992C7.05381 32.4791 8.23021 32.9064 9.44531 32.9064C10.6604 32.9064 11.8368 32.4791 12.7687 31.6992C13.7005 30.9194 14.3284 29.8367 14.5426 28.6406H23.848C24.0622 29.8367 24.6901 30.9194 25.622 31.6992C26.5538 32.4791 27.7302 32.9064 28.9453 32.9064C30.1604 32.9064 31.3368 32.4791 32.2687 31.6992C33.2005 30.9194 33.8284 29.8367 34.0426 28.6406H37.7812V14.817C37.7818 14.4419 37.6664 14.0757 37.4508 13.7687L33.6591 8.35202ZM13.7109 9.75H24.6797V17.0625H13.7109V9.75ZM3.65625 9.75H11.2734V17.0625H3.65625V9.75ZM9.44531 30.4688C8.90296 30.4688 8.37279 30.3079 7.92183 30.0066C7.47088 29.7053 7.11941 29.277 6.91186 28.776C6.70431 28.2749 6.65001 27.7235 6.75582 27.1916C6.86162 26.6597 7.12279 26.171 7.50629 25.7875C7.8898 25.404 8.37841 25.1429 8.91034 25.0371C9.44227 24.9313 9.99363 24.9856 10.4947 25.1931C10.9958 25.4007 11.424 25.7521 11.7254 26.2031C12.0267 26.654 12.1875 27.1842 12.1875 27.7266C12.1867 28.4536 11.8975 29.1506 11.3834 29.6647C10.8694 30.1788 10.1723 30.4679 9.44531 30.4688ZM28.9453 30.4688C28.403 30.4688 27.8728 30.3079 27.4218 30.0066C26.9709 29.7053 26.6194 29.277 26.4119 28.776C26.2043 28.2749 26.15 27.7235 26.2558 27.1916C26.3616 26.6597 26.6228 26.171 27.0063 25.7875C27.3898 25.404 27.8784 25.1429 28.4103 25.0371C28.9423 24.9313 29.4936 24.9856 29.9947 25.1931C30.4958 25.4007 30.924 25.7521 31.2254 26.2031C31.5267 26.654 31.6875 27.1842 31.6875 27.7266C31.6867 28.4536 31.3975 29.1506 30.8834 29.6647C30.3694 30.1788 29.6723 30.4679 28.9453 30.4688ZM35.3438 26.2031H33.896C33.5703 25.1443 32.9137 24.2179 32.0227 23.5597C31.1316 22.9016 30.0531 22.5465 28.9453 22.5465C27.8376 22.5465 26.759 22.9016 25.8679 23.5597C24.9769 24.2179 24.3203 25.1443 23.9946 26.2031H14.396C14.0703 25.1443 13.4137 24.2179 12.5227 23.5597C11.6316 22.9016 10.5531 22.5465 9.44531 22.5465C8.33756 22.5465 7.25899 22.9016 6.36794 23.5597C5.4769 24.2179 4.82032 25.1443 4.4946 26.2031H3.65625V19.5H35.3438V26.2031ZM35.3438 17.0625H27.1172V9.75H31.6623L35.3438 15.0091V17.0625Z" fill="#34437A"/>
</svg>
