<svg width="27" height="26" viewBox="0 0 27 26" fill="none" xmlns="http://www.w3.org/2000/svg">
<path d="M16.5012 12.7698L25.4075 3.86358C25.8301 3.44164 26.0679 2.86907 26.0684 2.27182C26.069 1.67458 25.8322 1.10158 25.4103 0.678896C24.9883 0.256207 24.4158 0.0184467 23.8185 0.0179193C23.2213 0.0173919 22.6483 0.25414 22.2256 0.676083L13.3193 9.58233L4.41308 0.676083C3.99039 0.253395 3.41711 0.0159302 2.81933 0.0159302C2.22156 0.0159302 1.64827 0.253395 1.22558 0.676083C0.802894 1.09877 0.56543 1.67206 0.56543 2.26983C0.56543 2.86761 0.802894 3.44089 1.22558 3.86358L10.1318 12.7698L1.22558 21.6761C0.802894 22.0988 0.56543 22.6721 0.56543 23.2698C0.56543 23.8676 0.802894 24.4409 1.22558 24.8636C1.64827 25.2863 2.22156 25.5237 2.81933 25.5237C3.41711 25.5237 3.99039 25.2863 4.41308 24.8636L13.3193 15.9573L22.2256 24.8636C22.6483 25.2863 23.2216 25.5237 23.8193 25.5237C24.4171 25.5237 24.9904 25.2863 25.4131 24.8636C25.8358 24.4409 26.0732 23.8676 26.0732 23.2698C26.0732 22.6721 25.8358 22.0988 25.4131 21.6761L16.5012 12.7698Z" fill="#585666"/>
</svg>
