<svg width="38" height="38" viewBox="0 0 38 38" fill="none" xmlns="http://www.w3.org/2000/svg">
<path d="M19.0003 5.34375C20.2811 5.3437 21.512 5.8403 22.4342 6.7291C23.3563 7.61791 23.8979 8.82968 23.9451 10.1096L23.9482 10.2925L29.292 10.2917C29.6494 10.2918 29.993 10.4301 30.2509 10.6777C30.5087 10.9253 30.6609 11.2629 30.6756 11.62C30.6903 11.9772 30.5664 12.3262 30.3298 12.5941C30.0932 12.8621 29.7622 13.0282 29.406 13.0577L29.292 13.0625H28.3681L27.0801 30.1388C27.0162 30.9848 26.635 31.7756 26.0128 32.3525C25.3907 32.9294 24.5735 33.25 23.725 33.25H14.2757C13.4272 33.25 12.61 32.9294 11.9878 32.3525C11.3657 31.7756 10.9845 30.9848 10.9206 30.1388L9.63174 13.0625H8.70866C8.36084 13.0625 8.02576 12.9316 7.76997 12.6959C7.51419 12.4602 7.35641 12.1369 7.32799 11.7903L7.32324 11.6771C7.32327 11.3293 7.45413 10.9942 7.68982 10.7384C7.92551 10.4826 8.2488 10.3248 8.59545 10.2964L8.70866 10.2917H14.0524C14.0524 7.68075 16.0751 5.54167 18.6393 5.35642L18.819 5.34692L19.0003 5.34375ZM21.9691 15.6354C21.7241 15.6353 21.4878 15.7261 21.3058 15.8902C21.1239 16.0542 21.0093 16.28 20.9842 16.5237L20.9795 16.625V26.125L20.9842 26.2263C21.0083 26.4708 21.1224 26.6977 21.3045 26.8627C21.4865 27.0277 21.7234 27.1191 21.9691 27.1191C22.2148 27.1191 22.4517 27.0277 22.6337 26.8627C22.8157 26.6977 22.9299 26.4708 22.9539 26.2263L22.9587 26.125V16.625L22.9539 16.5237C22.9288 16.28 22.8142 16.0542 22.6323 15.8902C22.4504 15.7261 22.2141 15.6353 21.9691 15.6354ZM16.0316 15.6354C15.7866 15.6353 15.5503 15.7261 15.3683 15.8902C15.1864 16.0542 15.0718 16.28 15.0467 16.5237L15.042 16.625V26.125L15.0467 26.2263C15.0708 26.4708 15.1849 26.6977 15.367 26.8627C15.549 27.0277 15.7859 27.1191 16.0316 27.1191C16.2773 27.1191 16.5142 27.0277 16.6962 26.8627C16.8782 26.6977 16.9924 26.4708 17.0164 26.2263L17.0212 26.125V16.625L17.0164 16.5237C16.9913 16.28 16.8767 16.0542 16.6948 15.8902C16.5129 15.7261 16.2766 15.6353 16.0316 15.6354ZM19.1333 8.11854L19.0003 8.11458C18.4459 8.11456 17.9124 8.32603 17.5086 8.70587C17.1048 9.08572 16.8611 9.60531 16.8272 10.1587L16.8232 10.2925L21.1774 10.2917C21.1774 9.73727 20.966 9.20375 20.5861 8.79993C20.2063 8.39611 19.6867 8.15241 19.1333 8.11854Z" fill="#EB4444"/>
</svg>
