<svg width="38" height="38" viewBox="0 0 38 38" fill="none" xmlns="http://www.w3.org/2000/svg">
<path d="M6.99881 32.5834C6.77913 32.583 6.56194 32.5369 6.36105 32.4481C6.16015 32.3592 5.97995 32.2295 5.83189 32.0672C5.68115 31.9063 5.56613 31.7154 5.49437 31.5069C5.4226 31.2985 5.39572 31.0772 5.41547 30.8576L5.80339 26.5921L23.7236 8.67824L29.3238 14.2769L11.4084 32.1892L7.14289 32.5771C7.09499 32.5815 7.04691 32.5836 6.99881 32.5834ZM30.4416 13.1575L24.843 7.55883L28.2012 4.20058C28.3483 4.05336 28.5229 3.93658 28.7151 3.8569C28.9073 3.77722 29.1134 3.73621 29.3214 3.73621C29.5295 3.73621 29.7355 3.77722 29.9277 3.8569C30.12 3.93658 30.2946 4.05336 30.4416 4.20058L33.7999 7.55883C33.9471 7.70588 34.0639 7.8805 34.1436 8.07271C34.2232 8.26493 34.2643 8.47096 34.2643 8.67904C34.2643 8.88711 34.2232 9.09314 34.1436 9.28536C34.0639 9.47757 33.9471 9.65219 33.7999 9.79924L30.4432 13.1559L30.4416 13.1575Z" fill="#555555"/>
</svg>
