<svg width="24" height="24" viewBox="0 0 24 24" fill="none" xmlns="http://www.w3.org/2000/svg">
<path d="M20.2496 20.9996C20.1511 20.9998 20.0535 20.9804 19.9625 20.9427C19.8715 20.905 19.7889 20.8496 19.7194 20.7798L3.21944 4.27976C3.08472 4.13797 3.01073 3.94915 3.01323 3.75358C3.01574 3.55801 3.09454 3.37115 3.23284 3.23285C3.37114 3.09455 3.558 3.01575 3.75357 3.01325C3.94914 3.01074 4.13795 3.08473 4.27975 3.21945L20.7797 19.7194C20.8846 19.8243 20.9559 19.9579 20.9849 20.1034C21.0138 20.2488 20.9989 20.3996 20.9422 20.5366C20.8854 20.6736 20.7894 20.7907 20.6661 20.8731C20.5428 20.9555 20.3979 20.9995 20.2496 20.9996Z" fill="#373737"/>
<path d="M11.9837 17.9996C10.0388 17.9996 8.16334 17.424 6.40928 16.2887C4.81225 15.2574 3.37459 13.7804 2.25147 12.023V12.0193C3.18615 10.6801 4.2099 9.54757 5.30959 8.63445C5.31954 8.62613 5.32765 8.61584 5.33342 8.60423C5.33919 8.59262 5.34249 8.57993 5.3431 8.56698C5.34372 8.55403 5.34165 8.54109 5.33701 8.52898C5.33237 8.51688 5.32527 8.50586 5.31615 8.49664L4.3824 7.56429C4.36581 7.54756 4.34353 7.5377 4.31999 7.53665C4.29645 7.53561 4.27338 7.54347 4.25537 7.55867C3.08725 8.54304 2.00303 9.75054 1.01725 11.1643C0.847647 11.4077 0.754242 11.6961 0.7489 11.9927C0.743558 12.2893 0.826522 12.5809 0.987248 12.8302C2.22522 14.7676 3.8185 16.3993 5.59412 17.5482C7.59334 18.8434 9.74491 19.4996 11.9837 19.4996C13.1921 19.4959 14.3919 19.2967 15.5368 18.9099C15.5519 18.9048 15.5654 18.8959 15.5761 18.8841C15.5868 18.8723 15.5944 18.8579 15.598 18.8424C15.6016 18.8268 15.6012 18.8106 15.5968 18.7953C15.5924 18.78 15.5842 18.766 15.5729 18.7548L14.5613 17.7432C14.538 17.7205 14.5092 17.7042 14.4778 17.696C14.4463 17.6878 14.4132 17.6879 14.3818 17.6963C13.5984 17.8981 12.7926 18 11.9837 17.9996Z" fill="#373737"/>
<path d="M23.0077 11.184C21.7674 9.26586 20.1582 7.63648 18.3544 6.47164C16.359 5.18164 14.1558 4.49961 11.9837 4.49961C10.788 4.50173 9.60132 4.70503 8.47319 5.10101C8.45816 5.10624 8.4447 5.11521 8.4341 5.12708C8.42349 5.13895 8.41608 5.15332 8.41256 5.16884C8.40905 5.18436 8.40954 5.20052 8.41399 5.2158C8.41845 5.23108 8.42672 5.24497 8.43803 5.25617L9.44819 6.26632C9.4717 6.28944 9.5009 6.30595 9.53283 6.31418C9.56476 6.32241 9.5983 6.32207 9.63006 6.3132C10.3974 6.10563 11.1887 6.00019 11.9837 5.99961C13.891 5.99961 15.7608 6.58226 17.5407 7.73398C19.1677 8.78398 20.6222 10.2596 21.7482 11.9996C21.749 12.0007 21.7495 12.002 21.7495 12.0034C21.7495 12.0047 21.749 12.006 21.7482 12.0071C20.9309 13.2938 19.9167 14.4442 18.7426 15.4163C18.7325 15.4246 18.7243 15.4349 18.7184 15.4465C18.7126 15.4582 18.7092 15.4709 18.7086 15.4839C18.7079 15.4969 18.7099 15.5099 18.7146 15.5221C18.7192 15.5343 18.7264 15.5453 18.7355 15.5546L19.6683 16.4869C19.6849 16.5036 19.707 16.5135 19.7304 16.5146C19.7539 16.5157 19.7769 16.508 19.7949 16.493C21.0483 15.4377 22.1333 14.1971 23.0124 12.8143C23.1678 12.5706 23.2499 12.2874 23.2491 11.9984C23.2483 11.7094 23.1645 11.4268 23.0077 11.184Z" fill="#373737"/>
<path d="M11.9996 7.49961C11.6625 7.49942 11.3265 7.53716 10.9979 7.61211C10.9813 7.61555 10.9659 7.62344 10.9534 7.63492C10.941 7.6464 10.9318 7.66104 10.927 7.6773C10.9222 7.69356 10.9219 7.71081 10.9261 7.72723C10.9304 7.74365 10.9389 7.75862 10.951 7.77054L16.2287 13.0468C16.2406 13.0588 16.2555 13.0674 16.272 13.0717C16.2884 13.0759 16.3056 13.0756 16.3219 13.0708C16.3382 13.0659 16.3528 13.0568 16.3643 13.0443C16.3758 13.0319 16.3836 13.0165 16.3871 12.9999C16.5374 12.3409 16.5372 11.6564 16.3867 10.9975C16.2361 10.3385 15.9391 9.72188 15.5176 9.19345C15.096 8.66502 14.5609 8.23834 13.9519 7.9451C13.3428 7.65186 12.6755 7.49959 11.9996 7.49961Z" fill="#373737"/>
<path d="M7.77053 10.9524C7.75861 10.9404 7.74364 10.9318 7.72722 10.9276C7.7108 10.9233 7.69354 10.9236 7.67729 10.9285C7.66103 10.9333 7.64638 10.9424 7.6349 10.9549C7.62342 10.9673 7.61554 10.9827 7.61209 10.9993C7.4421 11.742 7.46344 12.5156 7.67413 13.2478C7.88481 13.9799 8.27794 14.6466 8.81666 15.1853C9.35539 15.7241 10.0221 16.1172 10.7542 16.3279C11.4864 16.5386 12.2601 16.5599 13.0027 16.3899C13.0193 16.3865 13.0347 16.3786 13.0471 16.3671C13.0596 16.3556 13.0687 16.341 13.0736 16.3247C13.0784 16.3085 13.0787 16.2912 13.0745 16.2748C13.0702 16.2584 13.0616 16.2434 13.0496 16.2315L7.77053 10.9524Z" fill="#373737"/>
</svg>
