<svg width="49" height="49" viewBox="0 0 49 49" fill="none" xmlns="http://www.w3.org/2000/svg">
<path d="M22.564 0.57425C27.4095 0.192248 32.2569 1.29052 36.4646 3.72374C40.6723 6.15696 44.042 9.81042 46.1279 14.2007C48.2138 18.591 48.9174 23.5111 48.1458 28.3101C47.3742 33.109 45.1636 37.5606 41.8066 41.0757C38.4496 44.5908 34.1045 47.0038 29.3461 47.9953C24.5877 48.9869 19.6404 48.5102 15.1588 46.6285C10.6773 44.7468 6.87267 41.5486 4.2485 37.4573C1.62433 33.3659 0.304269 28.5742 0.463001 23.7162C0.480505 23.1195 0.734345 22.5542 1.16868 22.1446C1.60301 21.735 2.18226 21.5147 2.779 21.5322C3.37574 21.5497 3.94108 21.8036 4.35066 22.2379C4.76024 22.6723 4.9805 23.2515 4.963 23.8482C4.81097 28.4468 6.2899 32.951 9.13829 36.5644C11.9867 40.1778 16.021 42.6676 20.528 43.5936C25.0349 44.5195 29.7241 43.822 33.7664 41.6244C37.8087 39.4267 40.9437 35.8704 42.617 31.5844C44.2903 27.2984 44.3942 22.5587 42.9103 18.2035C41.4264 13.8483 38.4503 10.1581 34.5082 7.78539C30.5661 5.41268 25.9119 4.51035 21.3688 5.23793C16.8256 5.96551 12.686 8.27614 9.682 11.7612L9.07 12.5082H14.701L15.007 12.5292C15.5478 12.6009 16.0442 12.8666 16.4037 13.2769C16.7632 13.6872 16.9614 14.2142 16.9614 14.7597C16.9614 15.3053 16.7632 15.8322 16.4037 16.2425C16.0442 16.6529 15.5478 16.9186 15.007 16.9902L14.701 17.0082H4.207L3.901 16.9902C3.41411 16.9233 2.96252 16.6988 2.61527 16.351C2.26802 16.0032 2.04419 15.5512 1.978 15.0642L1.957 14.7582V2.75825L1.978 2.45525C2.04419 1.96825 2.26802 1.51632 2.61527 1.16853C2.96252 0.82073 3.41411 0.5962 3.901 0.52925L4.207 0.51125L4.513 0.52925C4.99989 0.5962 5.45147 0.82073 5.79873 1.16853C6.14598 1.51632 6.36981 1.96825 6.436 2.45525L6.457 2.75825L6.454 8.61724C10.5721 3.9412 16.3517 1.05573 22.564 0.57425ZM23.698 12.5082L24.004 12.5292C24.4909 12.5962 24.9425 12.8207 25.2897 13.1685C25.637 13.5163 25.8608 13.9682 25.927 14.4552L25.948 14.7582V24.4992L31.198 24.5022L31.504 24.5232C32.0425 24.5973 32.536 24.8639 32.8932 25.2736C33.2505 25.6834 33.4473 26.2086 33.4473 26.7522C33.4473 27.2958 33.2505 27.8211 32.8932 28.2308C32.536 28.6406 32.0425 28.9071 31.504 28.9812L31.198 29.0022H23.698L23.392 28.9812C22.9055 28.9144 22.4543 28.6903 22.1071 28.3431C21.7599 27.9959 21.5358 27.5447 21.469 27.0582L21.448 26.7492V14.7582L21.469 14.4552C21.5352 13.9682 21.759 13.5163 22.1063 13.1685C22.4535 12.8207 22.9051 12.5962 23.392 12.5292L23.698 12.5112V12.5082Z" fill="#8B97A8"/>
</svg>
