<svg width="112" height="113" viewBox="0 0 112 113" fill="none" xmlns="http://www.w3.org/2000/svg">
<g clip-path="url(#clip0_36_1360)">
<path d="M64.8009 59.2796C62.0213 58.4109 60.284 58.0635 60.284 56.4999C60.284 55.1101 62.0213 54.7626 64.8009 53.7202C79.9153 49.5507 84.2585 38.6058 84.2585 20.0168H28.3179C28.3179 38.6058 32.6611 49.5507 47.7755 53.7202C50.5552 54.5889 52.2924 54.9363 52.2924 56.4999C52.2924 58.0635 50.5552 58.2372 47.7755 59.2796C32.6611 63.449 28.3179 74.394 28.3179 92.9829H84.2585C84.2585 74.394 79.9153 63.449 64.8009 59.2796Z" fill="#E5E5E5"/>
<path d="M62.3685 59.2796C60.2838 58.4109 59.0677 58.0635 59.0677 56.4999C59.0677 55.1101 60.2838 54.7626 62.3685 53.7202C73.3134 49.377 74.3558 38.4321 74.3558 20.0168H38.2202C38.2202 38.6058 39.2626 49.5507 50.2075 53.7202C52.2922 54.5889 53.5084 54.9363 53.5084 56.4999C53.5084 58.0635 52.2922 58.2372 50.2075 59.2796C39.2626 63.6228 38.2202 74.5677 38.2202 92.9829H74.5295C74.3558 74.394 73.3134 63.449 62.3685 59.2796Z" fill="#F5F5F5"/>
<path d="M57.8518 92.9831C57.8518 92.9831 56.8094 61.8856 56.8094 56.5C56.8094 55.1102 59.5891 53.0254 60.8052 52.3305C66.1908 49.2034 72.9662 43.1229 72.9662 36.8687H39.4365C39.4365 43.2966 46.3857 49.3771 51.5975 52.3305C52.8136 53.0254 55.5933 55.1102 55.5933 56.5C55.5933 62.0593 54.5509 92.9831 54.5509 92.9831H57.8518Z" fill="#428BC1"/>
<path d="M97.9831 108.619C97.9831 110.53 96.5933 112.093 94.6822 112.093H17.8941C16.1568 112.093 14.5933 110.53 14.5933 108.619V103.407C14.5933 101.496 15.9831 99.9322 17.8941 99.9322H94.856C96.5933 99.9322 98.1568 101.496 98.1568 103.407L97.9831 108.619ZM87.5594 18.6271C87.5594 19.322 86.8644 20.0169 85.9958 20.0169H26.5805C25.7119 20.0169 25.017 19.322 25.017 18.6271V14.4576C25.017 13.7627 25.7119 13.0677 26.5805 13.0677H85.9958C86.8644 13.0677 87.5594 13.7627 87.5594 14.4576V18.6271Z" fill="#212528"/>
<path d="M78.8726 18.6271C78.8726 19.322 78.3514 20.0169 77.6565 20.0169H34.9192C34.2243 20.0169 33.7031 19.322 33.7031 18.6271V14.4576C33.7031 13.7627 34.2243 13.0677 34.9192 13.0677H77.6565C78.3514 13.0677 78.8726 13.7627 78.8726 14.4576V18.6271Z" fill="#51575B"/>
<path d="M87.5594 98.5423C87.5594 99.2372 86.8644 99.9322 85.9958 99.9322H26.5805C25.7119 99.9322 25.017 99.2372 25.017 98.5423V94.3728C25.017 93.6779 25.7119 92.983 26.5805 92.983H85.9958C86.8644 92.983 87.5594 93.6779 87.5594 94.3728V98.5423ZM97.9831 9.59318C97.9831 11.5042 96.5933 13.0678 94.6822 13.0678H17.8941C15.9831 13.0678 14.5933 11.5042 14.5933 9.59318V4.38131C14.5933 2.4703 15.9831 0.906738 17.8941 0.906738H94.856C96.5933 0.906738 98.1568 2.4703 98.1568 4.38131L97.9831 9.59318Z" fill="#212528"/>
<path d="M87.5595 9.59318C87.5595 11.5042 86.3434 13.0678 84.9535 13.0678H27.623C26.2332 13.0678 25.0171 11.5042 25.0171 9.59318V4.38131C25.0171 2.4703 26.2332 0.906738 27.623 0.906738H85.1273C86.3434 0.906738 87.5595 2.4703 87.5595 4.38131V9.59318ZM87.5595 108.619C87.5595 110.53 86.3434 112.093 84.9535 112.093H27.623C26.2332 112.093 25.0171 110.53 25.0171 108.619V103.407C25.0171 101.496 26.2332 99.9322 27.623 99.9322H85.1273C86.5171 99.9322 87.7332 101.496 87.7332 103.407C87.5595 103.407 87.5595 108.619 87.5595 108.619Z" fill="#51575B"/>
<path d="M21.5425 13.0677H23.2798V99.9322H21.5425V13.0677Z" fill="#919191"/>
<path d="M19.8052 13.0677H21.5425V99.9322H19.8052V13.0677Z" fill="#CECECE"/>
<path d="M91.0337 13.0677H92.771V99.9322H91.0337V13.0677Z" fill="#919191"/>
<path d="M89.2964 13.0677H91.0337V99.9322H89.2964V13.0677Z" fill="#CECECE"/>
<path d="M78.8726 98.5424C78.8726 99.2373 78.3514 99.9322 77.6565 99.9322H34.9192C34.2243 99.9322 33.7031 99.2373 33.7031 98.5424V94.3729C33.7031 93.6779 34.2243 92.983 34.9192 92.983H77.6565C78.3514 92.983 78.8726 93.6779 78.8726 94.3729V98.5424Z" fill="#51575B"/>
</g>
<defs>
<clipPath id="clip0_36_1360">
<rect width="111.186" height="111.186" fill="white" transform="translate(0.694824 0.906738)"/>
</clipPath>
</defs>
</svg>
