<svg width="32" height="31" viewBox="0 0 32 31" fill="none" xmlns="http://www.w3.org/2000/svg">
<path d="M12.3427 16.8129L14.781 19.2512M30.646 10.7091C30.326 11.0311 29.9454 11.2866 29.5263 11.4609C29.1071 11.6352 28.6577 11.725 28.2037 11.725C27.7497 11.725 27.3003 11.6352 26.8811 11.4609C26.462 11.2866 26.0815 11.0311 25.7614 10.7091L18.4385 18.032L20.8847 20.4783C21.5306 21.1254 21.8934 22.0023 21.8934 22.9166C21.8934 23.8309 21.5306 24.7078 20.8847 25.355L14.781 19.2512L3.79266 30.2395H1.35432V27.8012L12.3427 16.8129L11.1156 15.5937L8.67724 13.1554L6.23891 10.7091C6.88603 10.0633 7.76296 9.70052 8.67724 9.70052C9.59152 9.70052 10.4685 10.0633 11.1156 10.7091L13.5618 13.1554L20.8847 5.83246C20.5628 5.51242 20.3073 5.13188 20.133 4.71274C19.9586 4.2936 19.8689 3.84412 19.8689 3.39017C19.8689 2.93621 19.9586 2.48674 20.133 2.0676C20.3073 1.64846 20.5628 1.26792 20.8847 0.947876L23.3231 3.38621L28.2077 8.27079L30.646 10.7091Z" stroke="#279B9B" stroke-width="1.5" stroke-linecap="round" stroke-linejoin="round"/>
</svg>
