<svg width="38" height="38" viewBox="0 0 38 38" fill="none" xmlns="http://www.w3.org/2000/svg">
<path d="M33.6992 13.1033L24.2771 11.734L20.0652 3.19511C19.9502 2.96132 19.7609 2.77206 19.5271 2.65702C18.9408 2.36757 18.2283 2.60878 17.9351 3.19511L13.7232 11.734L4.30115 13.1033C4.04139 13.1404 3.80389 13.2629 3.62205 13.4484C3.40222 13.6744 3.28109 13.9783 3.28526 14.2936C3.28944 14.6088 3.41858 14.9094 3.64432 15.1295L10.4613 21.7758L8.85077 31.1607C8.813 31.379 8.83716 31.6036 8.9205 31.8089C9.00385 32.0141 9.14304 32.192 9.32231 32.3222C9.50157 32.4524 9.71373 32.5297 9.93473 32.5455C10.1557 32.5612 10.3767 32.5148 10.5726 32.4113L19.0002 27.9805L27.4277 32.4113C27.6578 32.5338 27.925 32.5746 28.181 32.5301C28.8268 32.4187 29.2609 31.8064 29.1496 31.1607L27.5391 21.7758L34.3561 15.1295C34.5416 14.9476 34.6641 14.7101 34.7012 14.4504C34.8014 13.801 34.3486 13.1998 33.6992 13.1033Z" fill="#FFE142"/>
</svg>
