<svg width="38" height="38" viewBox="0 0 38 38" fill="none" xmlns="http://www.w3.org/2000/svg">
<path fill-rule="evenodd" clip-rule="evenodd" d="M3.5625 19C3.5625 10.477 10.477 3.5625 19 3.5625C27.523 3.5625 34.4375 10.477 34.4375 19C34.4375 27.523 27.523 34.4375 19 34.4375C10.477 34.4375 3.5625 27.523 3.5625 19ZM19 5.9375C11.7887 5.9375 5.9375 11.7887 5.9375 19C5.9375 26.2113 11.7887 32.0625 19 32.0625C26.2113 32.0625 32.0625 26.2113 32.0625 19C32.0625 11.7887 26.2113 5.9375 19 5.9375Z" fill="#279B9B"/>
<path fill-rule="evenodd" clip-rule="evenodd" d="M19 8.3125C19.6558 8.3125 20.1875 8.84416 20.1875 9.5V19H26.125C26.7808 19 27.3125 19.5317 27.3125 20.1875C27.3125 20.8433 26.7808 21.375 26.125 21.375H19C18.3442 21.375 17.8125 20.8433 17.8125 20.1875V9.5C17.8125 8.84416 18.3442 8.3125 19 8.3125Z" fill="#279B9B"/>
</svg>
