<svg width="34" height="34" viewBox="0 0 34 34" fill="none" xmlns="http://www.w3.org/2000/svg">
<g clip-path="url(#clip0_37_2263)">
<path d="M0.200195 7.5499C0.200195 6.71447 0.532069 5.91326 1.12281 5.32252C1.71355 4.73178 2.51476 4.3999 3.3502 4.3999H22.2502C23.0856 4.3999 23.8868 4.73178 24.4776 5.32252C25.0683 5.91326 25.4002 6.71447 25.4002 7.5499V10.6999H27.5422C28.0141 10.7003 28.48 10.8068 28.9052 11.0114C29.3305 11.2161 29.7044 11.5137 29.9992 11.8822L33.1093 15.7672C33.5568 16.3262 33.8005 17.021 33.8002 17.737V22.2499C33.8002 23.0853 33.4683 23.8865 32.8776 24.4773C32.2868 25.068 31.4856 25.3999 30.6502 25.3999H29.6002C29.6002 26.5138 29.1577 27.5821 28.37 28.3697C27.5824 29.1574 26.5141 29.5999 25.4002 29.5999C24.2863 29.5999 23.218 29.1574 22.4303 28.3697C21.6427 27.5821 21.2002 26.5138 21.2002 25.3999H10.7002C10.7014 25.9597 10.5907 26.5141 10.3745 27.0306C10.1584 27.547 9.84118 28.015 9.44156 28.407C9.04194 28.7991 8.56797 29.1073 8.04752 29.3136C7.52706 29.5198 6.97063 29.6199 6.41093 29.608C5.85123 29.5961 5.29955 29.4724 4.78834 29.2443C4.27712 29.0161 3.81668 28.688 3.43409 28.2793C3.05149 27.8706 2.75446 27.3896 2.56046 26.8644C2.36645 26.3393 2.27939 25.7807 2.3044 25.2214C1.6892 25.0049 1.15637 24.6027 0.779468 24.0705C0.402563 23.5382 0.20016 22.9021 0.200195 22.2499L0.200195 7.5499ZM2.9176 23.2075C3.29728 22.5859 3.83217 22.0738 4.4697 21.7215C5.10723 21.3692 5.82546 21.1888 6.5538 21.1981C7.28214 21.2075 7.99552 21.4061 8.62383 21.7746C9.25213 22.1431 9.77374 22.6688 10.1374 23.2999H21.763C22.1324 22.6621 22.6624 22.1321 23.3002 21.7627V7.5499C23.3002 7.27142 23.1896 7.00435 22.9927 6.80744C22.7957 6.61053 22.5287 6.4999 22.2502 6.4999H3.3502C3.07172 6.4999 2.80465 6.61053 2.60773 6.80744C2.41082 7.00435 2.3002 7.27142 2.3002 7.5499V22.2499C2.30003 22.452 2.3582 22.6499 2.46771 22.8197C2.57723 22.9896 2.73344 23.1242 2.9176 23.2075ZM25.4002 21.1999C26.1374 21.1999 26.8617 21.394 27.5001 21.7626C28.1386 22.1312 28.6688 22.6614 29.0374 23.2999H30.6502C30.9287 23.2999 31.1957 23.1893 31.3927 22.9924C31.5896 22.7954 31.7002 22.5284 31.7002 22.2499V17.7349C31.6998 17.4966 31.6183 17.2656 31.4692 17.0797L28.3612 13.1947C28.263 13.0717 28.1384 12.9724 27.9966 12.9041C27.8549 12.8357 27.6996 12.8001 27.5422 12.7999H25.4002V21.1999ZM6.5002 23.2999C5.94324 23.2999 5.4091 23.5211 5.01527 23.915C4.62144 24.3088 4.4002 24.8429 4.4002 25.3999C4.4002 25.9569 4.62144 26.491 5.01527 26.8848C5.4091 27.2786 5.94324 27.4999 6.5002 27.4999C7.05715 27.4999 7.59129 27.2786 7.98512 26.8848C8.37895 26.491 8.60019 25.9569 8.60019 25.3999C8.60019 24.8429 8.37895 24.3088 7.98512 23.915C7.59129 23.5211 7.05715 23.2999 6.5002 23.2999ZM25.4002 23.2999C24.8432 23.2999 24.3091 23.5211 23.9153 23.915C23.5214 24.3088 23.3002 24.8429 23.3002 25.3999C23.3002 25.9569 23.5214 26.491 23.9153 26.8848C24.3091 27.2786 24.8432 27.4999 25.4002 27.4999C25.9571 27.4999 26.4913 27.2786 26.8851 26.8848C27.2789 26.491 27.5002 25.9569 27.5002 25.3999C27.5002 24.8429 27.2789 24.3088 26.8851 23.915C26.4913 23.5211 25.9571 23.2999 25.4002 23.2999Z" fill="#34437A"/>
</g>
<defs>
<clipPath id="clip0_37_2263">
<rect width="33.6" height="33.6" fill="white" transform="translate(0.200195 0.199951)"/>
</clipPath>
</defs>
</svg>
