<svg width="69" height="49" viewBox="0 0 69 49" fill="none" xmlns="http://www.w3.org/2000/svg">
<path d="M52.6678 17.2981L52.0246 17.0677L46.5773 6.85448C45.5541 4.93514 44.0285 3.32999 42.1636 2.21071C40.2987 1.09143 38.1647 0.500116 35.9897 0.5H22.2728C19.7539 0.499897 17.2989 1.29252 15.2556 2.76554C13.2123 4.23856 11.6845 6.31726 10.8885 8.70707L8.29198 16.4966C6.11665 17.4135 4.26011 18.9517 2.95479 20.9186C1.64946 22.8856 0.953356 25.1939 0.953613 27.5545V32.8963C0.953613 36.3039 2.98378 39.2316 5.89705 40.5515C6.27432 42.713 7.38077 44.6801 9.03211 46.125C10.6835 47.5699 12.78 48.4055 14.9725 48.4925C17.165 48.5794 19.3212 47.9126 21.0818 46.6031C22.8424 45.2935 24.1012 43.4203 24.6485 41.2954H44.4511C44.9984 43.4203 46.2572 45.2935 48.0178 46.6031C49.7785 47.9126 51.9346 48.5794 54.1271 48.4925C56.3196 48.4055 58.4162 47.5699 60.0675 46.125C61.7189 44.6801 62.8253 42.713 63.2026 40.5515C64.6758 39.8864 65.9258 38.8105 66.8027 37.4526C67.6796 36.0947 68.146 34.5127 68.146 32.8963V31.2693C68.1456 28.7924 67.3787 26.3763 65.9506 24.3526C64.5224 22.329 62.5029 20.7969 60.1693 19.9666L52.9221 17.3893V17.2981H52.6678ZM22.2728 5.29946H27.3506V17.2981H13.0818L15.4384 10.2237C15.9162 8.78919 16.8335 7.54152 18.0602 6.65766C19.2869 5.77379 20.7608 5.29859 22.2728 5.29946V5.29946ZM32.1501 5.29946H35.9897C37.2948 5.29899 38.5755 5.65333 39.6948 6.32457C40.8141 6.99581 41.7298 7.95869 42.3441 9.11023L46.7116 17.2981H32.1501V5.29946ZM51.8423 22.0976L58.5615 24.4877C59.9615 24.986 61.173 25.9053 62.0297 27.1195C62.8864 28.3337 63.3464 29.7833 63.3466 31.2693V32.8963C63.3466 33.7362 63.0586 34.509 62.5786 35.1233C61.7925 33.278 60.448 31.7254 58.7341 30.6835C57.0203 29.6415 55.023 29.1627 53.023 29.3141C51.023 29.4655 49.1207 30.2397 47.5832 31.5278C46.0458 32.816 44.9504 34.5533 44.4511 36.4959H24.6485C24.1492 34.5533 23.0539 32.816 21.5164 31.5278C19.979 30.2397 18.0766 29.4655 16.0766 29.3141C14.0766 29.1627 12.0794 29.6415 10.3655 30.6835C8.65159 31.7254 7.30715 33.278 6.52098 35.1233C6.02149 34.4886 5.75091 33.704 5.75307 32.8963V27.5545C5.75307 25.3948 6.71296 23.427 8.24879 22.0976H51.8423ZM10.5525 38.8957C10.5525 37.6228 11.0582 36.402 11.9583 35.5019C12.8583 34.6019 14.0791 34.0962 15.352 34.0962C16.6249 34.0962 17.8456 34.6019 18.7457 35.5019C19.6458 36.402 20.1514 37.6228 20.1514 38.8957C20.1514 40.1686 19.6458 41.3893 18.7457 42.2894C17.8456 43.1895 16.6249 43.6951 15.352 43.6951C14.0791 43.6951 12.8583 43.1895 11.9583 42.2894C11.0582 41.3893 10.5525 40.1686 10.5525 38.8957ZM53.7476 34.0962C55.0205 34.0962 56.2413 34.6019 57.1414 35.5019C58.0414 36.402 58.5471 37.6228 58.5471 38.8957C58.5471 40.1686 58.0414 41.3893 57.1414 42.2894C56.2413 43.1895 55.0205 43.6951 53.7476 43.6951C52.4747 43.6951 51.254 43.1895 50.3539 42.2894C49.4538 41.3893 48.9482 40.1686 48.9482 38.8957C48.9482 37.6228 49.4538 36.402 50.3539 35.5019C51.254 34.6019 52.4747 34.0962 53.7476 34.0962V34.0962Z" fill="#8B97A8"/>
</svg>
