<svg width="26" height="18" viewBox="0 0 26 18" fill="none" xmlns="http://www.w3.org/2000/svg">
<path d="M20.0291 6.30531L19.7885 6.21911L17.7503 2.39765C17.3674 1.6795 16.7966 1.07891 16.0988 0.660112C15.401 0.241314 14.6026 0.0200629 13.7887 0.0200195H8.65635C7.71387 0.0199811 6.79528 0.316553 6.03075 0.867708C5.26623 1.41886 4.69454 2.19664 4.39672 3.09083L3.42519 6.00541C2.61126 6.34848 1.9166 6.92402 1.42819 7.65999C0.939784 8.39595 0.679324 9.25964 0.67942 10.1429V12.1416C0.67942 13.4167 1.43904 14.5121 2.52909 15.0059C2.67025 15.8147 3.08425 16.5507 3.70213 17.0914C4.32 17.632 5.10446 17.9446 5.92483 17.9772C6.74519 18.0097 7.55195 17.7602 8.21071 17.2702C8.86948 16.7803 9.34048 16.0794 9.54527 15.2843H16.9547C17.1595 16.0794 17.6305 16.7803 18.2893 17.2702C18.948 17.7602 19.7548 18.0097 20.5752 17.9772C21.3955 17.9446 22.18 17.632 22.7979 17.0914C23.4157 16.5507 23.8297 15.8147 23.9709 15.0059C24.5221 14.7571 24.9899 14.3545 25.318 13.8464C25.646 13.3384 25.8206 12.7464 25.8206 12.1416V11.5329C25.8204 10.6061 25.5335 9.70208 24.9991 8.94489C24.4647 8.18769 23.7091 7.61443 22.836 7.30377L20.1243 6.33943V6.30531H20.0291ZM8.65635 1.81582H10.5563V6.30531H5.2174L6.09914 3.6583C6.27791 3.12156 6.62113 2.65472 7.08014 2.32401C7.53914 1.99329 8.09062 1.81549 8.65635 1.81582ZM12.3521 1.81582H13.7887C14.2771 1.81564 14.7563 1.94822 15.1751 2.19938C15.5939 2.45053 15.9365 2.81081 16.1664 3.24168L17.8005 6.30531H12.3521V1.81582ZM19.7203 8.1011L22.2344 8.99541C22.7582 9.18186 23.2115 9.52585 23.532 9.98016C23.8526 10.4345 24.0247 10.9769 24.0248 11.5329V12.1416C24.0248 12.4559 23.917 12.745 23.7375 12.9749C23.4433 12.2845 22.9402 11.7035 22.299 11.3137C21.6577 10.9238 20.9104 10.7446 20.1621 10.8013C19.4137 10.858 18.7019 11.1476 18.1267 11.6296C17.5514 12.1116 17.1416 12.7616 16.9547 13.4885H9.54527C9.35843 12.7616 8.9486 12.1116 8.37334 11.6296C7.79807 11.1476 7.08628 10.858 6.33794 10.8013C5.5896 10.7446 4.84231 10.9238 4.20103 11.3137C3.55975 11.7035 3.0567 12.2845 2.76254 12.9749C2.57565 12.7374 2.47441 12.4438 2.47522 12.1416V10.1429C2.47522 9.33482 2.83438 8.59854 3.40903 8.1011H19.7203ZM4.27101 14.3864C4.27101 13.9101 4.46021 13.4534 4.79699 13.1166C5.13377 12.7798 5.59054 12.5906 6.06681 12.5906C6.54309 12.5906 6.99985 12.7798 7.33663 13.1166C7.67341 13.4534 7.86261 13.9101 7.86261 14.3864C7.86261 14.8627 7.67341 15.3194 7.33663 15.6562C6.99985 15.993 6.54309 16.1822 6.06681 16.1822C5.59054 16.1822 5.13377 15.993 4.79699 15.6562C4.46021 15.3194 4.27101 14.8627 4.27101 14.3864ZM20.4332 12.5906C20.9095 12.5906 21.3662 12.7798 21.703 13.1166C22.0398 13.4534 22.229 13.9101 22.229 14.3864C22.229 14.8627 22.0398 15.3194 21.703 15.6562C21.3662 15.993 20.9095 16.1822 20.4332 16.1822C19.9569 16.1822 19.5001 15.993 19.1634 15.6562C18.8266 15.3194 18.6374 14.8627 18.6374 14.3864C18.6374 13.9101 18.8266 13.4534 19.1634 13.1166C19.5001 12.7798 19.9569 12.5906 20.4332 12.5906Z" fill="#34437A"/>
</svg>
