<svg width="69" height="49" viewBox="0 0 69 49" fill="none" xmlns="http://www.w3.org/2000/svg">
<path d="M46.4999 34.1C45.8634 34.1 45.2529 34.3529 44.8028 34.8029C44.3528 35.253 44.0999 35.8635 44.0999 36.5C44.0999 37.1365 44.3528 37.747 44.8028 38.1971C45.2529 38.6471 45.8634 38.9 46.4999 38.9H56.0999C56.7364 38.9 57.3469 38.6471 57.797 38.1971C58.247 37.747 58.4999 37.1365 58.4999 36.5C58.4999 35.8635 58.247 35.253 57.797 34.8029C57.3469 34.3529 56.7364 34.1 56.0999 34.1H46.4999ZM0.899902 10.1C0.899902 7.55392 1.91133 5.11212 3.71168 3.31177C5.51203 1.51143 7.95382 0.5 10.4999 0.5H58.4999C61.046 0.5 63.4878 1.51143 65.2881 3.31177C67.0885 5.11212 68.0999 7.55392 68.0999 10.1V38.9C68.0999 41.4461 67.0885 43.8879 65.2881 45.6882C63.4878 47.4886 61.046 48.5 58.4999 48.5H10.4999C7.95382 48.5 5.51203 47.4886 3.71168 45.6882C1.91133 43.8879 0.899902 41.4461 0.899902 38.9V10.1ZM63.2999 10.1C63.2999 8.82696 62.7942 7.60606 61.894 6.70589C60.9938 5.80571 59.7729 5.3 58.4999 5.3H10.4999C9.22686 5.3 8.00596 5.80571 7.10579 6.70589C6.20561 7.60606 5.6999 8.82696 5.6999 10.1V14.9H63.2999V10.1ZM5.6999 38.9C5.6999 40.173 6.20561 41.3939 7.10579 42.2941C8.00596 43.1943 9.22686 43.7 10.4999 43.7H58.4999C59.7729 43.7 60.9938 43.1943 61.894 42.2941C62.7942 41.3939 63.2999 40.173 63.2999 38.9V19.7H5.6999V38.9Z" fill="#8B97A8"/>
</svg>
