<svg width="48" height="48" viewBox="0 0 48 48" fill="none" xmlns="http://www.w3.org/2000/svg">
<path d="M39.9749 43.3316H8.02492C7.2843 43.3316 6.54367 43.1441 5.8968 42.7973C4.83742 42.2254 4.06867 41.2785 3.7218 40.1254C3.37492 38.9723 3.4968 37.7535 4.06867 36.7035L20.0343 7.03163C20.8218 5.56913 22.3405 4.66913 23.9999 4.66913C25.6593 4.66913 27.178 5.5785 27.9655 7.03163L43.9406 36.7035C44.2968 37.3598 44.4749 38.091 44.4749 38.841C44.4749 40.041 44.0062 41.1754 43.153 42.0191C42.3093 42.8723 41.1843 43.3316 39.9749 43.3316ZM8.02492 40.3316H39.9843C40.3874 40.3316 40.7624 40.1723 41.0437 39.891C41.3249 39.6098 41.4843 39.2348 41.4843 38.8316C41.4843 38.5879 41.4187 38.3348 41.3062 38.1191L25.3218 8.45663C24.9374 7.74413 24.2718 7.66913 23.9999 7.66913C23.728 7.66913 23.0624 7.74413 22.678 8.45663L6.70305 38.1285C6.51555 38.4848 6.46867 38.8879 6.59055 39.2723C6.70305 39.6566 6.96555 39.9754 7.31242 40.1629C7.52805 40.2754 7.7718 40.3316 8.02492 40.3316Z" fill="#FF9900"/>
<path d="M23.9999 31.2563C23.2031 31.2563 22.5374 30.6281 22.4999 29.8313L21.9656 18.3938C21.9656 18.3844 21.9656 18.375 21.9656 18.3656V18.3188C21.9562 17.1938 22.8562 16.275 23.9812 16.2656C24.0187 16.2656 24.0562 16.2656 24.0937 16.2656C25.2187 16.3125 26.0906 17.2688 26.0343 18.3938L25.4999 29.8313C25.4624 30.6281 24.7968 31.2563 23.9999 31.2563Z" fill="#FF9900"/>
<path d="M23.9999 37.2372C22.9686 37.2372 22.1249 36.3934 22.1249 35.3622C22.1249 34.3309 22.9686 33.4872 23.9999 33.4872C25.0311 33.4872 25.8749 34.3309 25.8749 35.3622C25.8749 36.3934 25.0311 37.2372 23.9999 37.2372Z" fill="#FF9900"/>
</svg>
